<svg width="196" height="111" viewBox="0 0 196 111" fill="none" xmlns="http://www.w3.org/2000/svg">
<path d="M89.6313 16.1075C89.6313 18.5528 89.1692 19.909 87.3949 19.909C85.6206 19.909 85.1543 18.5445 85.1543 16.0992C85.1543 13.6538 85.6164 12.2976 87.3949 12.2976C89.1733 12.2976 89.6313 13.6663 89.6313 16.1075ZM88.7153 16.2744C88.7153 14.4634 88.641 13.1572 87.3908 13.1572C86.1405 13.1572 86.0621 14.4508 86.0621 15.9155C86.0621 17.7266 86.1322 19.0327 87.3908 19.0327C88.6493 19.0327 88.7153 17.7475 88.7153 16.2744Z" fill="white"/>
<path d="M94.1172 19.7255H90.8574V12.4729H91.7405V18.9284H94.1172V19.7255Z" fill="white"/>
<path d="M98.5486 19.7255H95.293V12.4729H96.1719V18.9284H98.5486V19.7255Z" fill="white"/>
<path d="M101.387 19.909C100.075 19.909 99.3691 19.0286 99.3691 17.351H100.31C100.31 18.5528 100.628 19.0911 101.416 19.0911C102.126 19.0911 102.46 18.6738 102.46 17.9645C102.46 17.1299 101.981 16.8419 101.276 16.4413C100.487 15.9948 99.5837 15.6067 99.5837 14.2046C99.5837 12.8025 100.487 12.2976 101.457 12.2976C102.604 12.2976 103.322 12.9611 103.322 14.3841H102.431C102.431 13.5495 102.142 13.0988 101.469 13.0988C101.328 13.0866 101.185 13.107 101.052 13.1584C100.919 13.2098 100.799 13.2908 100.702 13.3956C100.604 13.5003 100.531 13.6259 100.489 13.7631C100.446 13.9003 100.434 14.0455 100.454 14.1879C100.454 15.0225 101.069 15.3397 101.754 15.6902C102.579 16.1367 103.372 16.5582 103.372 17.8852C103.372 19.2122 102.546 19.9257 101.387 19.9257" fill="white"/>
<path d="M106.459 19.9091C104.585 19.9091 104.301 18.1815 104.301 16.0449C104.301 13.9084 104.619 12.2893 106.541 12.2893C107.986 12.2893 108.468 13.2115 108.51 14.743H107.573C107.573 13.875 107.462 13.1197 106.517 13.1197C105.237 13.1197 105.204 14.4843 105.204 15.9031C105.204 17.7392 105.204 19.062 106.529 19.062C107.354 19.062 107.627 18.4945 107.627 17.1675H108.555C108.555 18.8784 107.961 19.9007 106.455 19.9007" fill="white"/>
<path d="M113.887 16.1075C113.887 18.5528 113.425 19.909 111.655 19.909C109.885 19.909 109.41 18.5445 109.41 16.0992C109.41 13.6538 109.872 12.2976 111.655 12.2976C113.437 12.2976 113.887 13.6663 113.887 16.1075ZM112.975 16.2828C112.975 14.4717 112.905 13.1656 111.655 13.1656C110.405 13.1656 110.322 14.4592 110.322 15.9239C110.322 17.7349 110.392 19.0411 111.655 19.0411C112.918 19.0411 112.975 17.7475 112.975 16.2828Z" fill="white"/>
<path d="M116.052 12.4729H115.182V19.7255H116.052V12.4729Z" fill="white"/>
<path d="M121 19.7255H117.744V12.4729H118.623V18.9284H121V19.7255Z" fill="white"/>
<path d="M128.121 13.2699H126.219V19.7255H125.336V13.2699H123.43V12.4729H128.121V13.2699Z" fill="white"/>
<path d="M129.096 19.7255V12.4729H132.289V13.2699H129.979V15.6527H132.116V16.4622H129.979V18.9284H132.384V19.7255H129.096Z" fill="white"/>
<path d="M134.687 12.4729H133.816V19.7255H134.687V12.4729Z" fill="white"/>
<path d="M138.182 19.9091C136.304 19.9091 136.02 18.1815 136.02 16.0449C136.02 13.9084 136.337 12.2893 138.26 12.2893C139.704 12.2893 140.187 13.2115 140.228 14.743H139.296C139.296 13.875 139.184 13.1197 138.239 13.1197C136.96 13.1197 136.931 14.4843 136.931 15.9031C136.931 17.7392 136.931 19.062 138.252 19.062C139.077 19.062 139.349 18.4945 139.349 17.1675H140.294C140.294 18.8784 139.7 19.9007 138.198 19.9007" fill="white"/>
<path d="M145.902 19.7255H145.003L142.358 14.1003V19.7255H141.508V12.4729H142.564L145.052 17.9436V12.4729H145.902V19.7255Z" fill="white"/>
<path d="M147.541 19.7255V12.4729H150.739V13.2699H148.424V15.6527H150.561V16.4622H148.424V18.9284H150.83V19.7255H147.541Z" fill="white"/>
<path d="M156.227 16.1075C156.227 18.5528 155.765 19.909 153.995 19.909C152.225 19.909 151.75 18.5445 151.75 16.0992C151.75 13.6538 152.212 12.2976 153.995 12.2976C155.777 12.2976 156.227 13.6663 156.227 16.1075ZM155.315 16.2744C155.315 14.4634 155.245 13.1572 153.995 13.1572C152.744 13.1572 152.674 14.4592 152.674 15.9239C152.674 17.7349 152.749 19.0411 154.007 19.0411C155.266 19.0411 155.328 17.7475 155.328 16.2828" fill="white"/>
<path d="M160.713 19.7255H157.457V12.4729H158.336V18.9284H160.713V19.7255Z" fill="white"/>
<path d="M164.983 17.7642H162.73L162.185 19.7213H161.273L163.403 12.4729H164.348L166.468 19.7213H165.532L164.983 17.7642ZM164.768 16.9588L163.857 13.6538L162.945 16.9588H164.768Z" fill="white"/>
<path d="M168.404 19.7254H167.529V12.4729H168.4L168.404 19.7254ZM168.355 11.6842H167.657L168.817 9.8606L169.51 10.4031L168.355 11.6842Z" fill="white"/>
<path d="M174.209 16.1075C174.209 18.5528 173.751 19.909 171.977 19.909C170.203 19.909 169.736 18.5445 169.736 16.0992C169.736 13.6538 170.194 12.2976 171.977 12.2976C173.759 12.2976 174.209 13.6663 174.209 16.1075ZM173.306 16.2744C173.306 14.4634 173.235 13.1572 171.985 13.1572C170.735 13.1572 170.652 14.4508 170.652 15.9155C170.652 17.7266 170.727 19.0327 171.985 19.0327C173.244 19.0327 173.306 17.7475 173.306 16.2744Z" fill="white"/>
<path d="M177.576 19.9091C175.703 19.9091 175.414 18.1815 175.414 16.0449C175.414 13.9084 175.732 12.2893 177.659 12.2893C179.099 12.2893 179.582 13.2115 179.623 14.743H178.69C178.69 13.875 178.579 13.1197 177.638 13.1197C176.355 13.1197 176.326 14.4843 176.326 15.9031C176.326 17.7392 176.326 19.062 177.646 19.062C178.472 19.062 178.744 18.4945 178.744 17.1675H179.672C179.672 18.8784 179.078 19.9007 177.576 19.9007" fill="white"/>
<path d="M185.297 19.7255H184.418V16.4706H181.785V19.7255H180.902V12.4729H181.785V15.6735H184.418V12.4729H185.297V19.7255Z" fill="white"/>
<path d="M190.961 13.2699H189.055V19.7255H188.176V13.2699H186.27V12.4729H190.961V13.2699Z" fill="white"/>
<path d="M194.205 17.7642H191.952L191.412 19.7213H190.5L192.621 12.4729H193.562L195.683 19.7213H194.762L194.205 17.7642ZM193.991 16.9588L193.079 13.6538L192.167 16.9588H193.991Z" fill="white"/>
<path d="M89.3842 28.6889C89.3842 29.7279 88.7817 30.7753 87.3994 30.7753H85.5137V23.5311H87.6429C88.7693 23.5311 89.1696 24.3657 89.1696 25.2003C89.1951 25.5422 89.1187 25.8839 88.9503 26.1814C88.7818 26.479 88.5291 26.7186 88.2247 26.8695C88.5863 26.9965 88.8962 27.241 89.106 27.5648C89.3157 27.8887 89.4136 28.2737 89.3842 28.6597V28.6889ZM86.3843 26.5398H87.2962C88.0225 26.5398 88.2907 25.9598 88.2907 25.3464C88.2907 24.8414 88.105 24.2989 87.4654 24.2989H86.3926L86.3843 26.5398ZM88.4723 28.6513C88.4723 27.9586 88.1875 27.316 87.4489 27.316H86.3843V29.9574H87.3788C88.204 29.9574 88.4723 29.3023 88.4723 28.6513Z" fill="white"/>
<path d="M95.0078 30.7837H94.1248V27.5288H91.4922V30.7837H90.6133V23.5311H91.4922V26.7318H94.1248V23.5311H95.0078V30.7837Z" fill="white"/>
<path d="M99.7367 28.8266H97.4837L96.9432 30.7837H96.0312L98.1481 23.5311H99.093L101.214 30.7837H100.269L99.7367 28.8266ZM99.5221 28.017L98.6184 24.7121L97.7065 28.017H99.5221Z" fill="white"/>
<path d="M103.158 23.5311H102.287V30.7837H103.158V23.5311Z" fill="white"/>
<path d="M108.105 30.7837H104.85V23.5311H105.729V29.9867H108.105V30.7837Z" fill="white"/>
<path d="M109.285 30.7837V23.5311H112.479V24.3282H110.164V26.7109H112.306V27.5205H110.164V29.9867H112.57V30.7837H109.285Z" fill="white"/>
<path d="M119.044 28.8266H116.775L116.23 30.7837H115.318L117.439 23.5312H118.384L120.501 30.7837H119.573L119.044 28.8266ZM118.838 28.0171L117.926 24.7121L117.014 28.0171H118.838ZM118.314 22.7467H117.6L118.756 20.9231L119.453 21.4614L118.314 22.7467Z" fill="white"/>
<path d="M124.746 24.3282H122.844V30.7837H121.961V24.3282H120.059V23.5311H124.746V24.3282Z" fill="white"/>
<path d="M130.115 30.7837H129.232V27.5288H126.6V30.7837H125.721V23.5311H126.6V26.7318H129.232V23.5311H130.115V30.7837Z" fill="white"/>
<path d="M134.849 28.8266H132.596L132.043 30.7837H131.131L133.281 23.5311H134.221L136.342 30.7837H135.41L134.849 28.8266ZM134.634 28.017L133.722 24.7121L132.81 28.017H134.634Z" fill="white"/>
<path d="M141.041 30.9715C139.168 30.9715 138.883 29.2397 138.883 27.1073C138.883 24.975 139.201 23.3517 141.123 23.3517C142.568 23.3517 143.05 24.2739 143.092 25.8054H142.159C142.159 24.9374 142.048 24.1821 141.103 24.1821C139.824 24.1821 139.791 25.5466 139.791 26.9654C139.791 28.8015 139.791 30.1285 141.115 30.1285C141.94 30.1285 142.209 29.5568 142.209 28.2298H143.141C143.141 29.9407 142.547 30.9673 141.041 30.9673" fill="white"/>
<path d="M147.627 30.7837H144.371V23.5311H145.25V29.9867H147.627V30.7837Z" fill="white"/>
<path d="M149.728 23.5311H148.857V30.7837H149.728V23.5311Z" fill="white"/>
<path d="M154.51 28.8266H152.261L151.721 30.7837H150.809L152.925 23.5311H153.87L155.975 30.7837H155.042L154.51 28.8266ZM154.295 28.017L153.383 24.7121L152.471 28.017H154.295Z" fill="white"/>
<path d="M160.217 24.3282H158.311V30.7837H157.432V24.3282H155.525V23.5311H160.217V24.3282Z" fill="white"/>
<path d="M165.58 30.7837H164.701V27.5288H162.068V30.7837H161.189V23.5311H162.068V26.7318H164.701V23.5311H165.58V30.7837Z" fill="white"/>
<path d="M190.433 43.8826V71.3697L189.038 69.2039L169.863 41.1827L169.822 41.1201H167.387H164.664V43.8743V80.6461H169.999V50.4717L171.229 52.4496L190.515 80.5835L190.557 80.6461H195.768V41.1201H193.193L190.433 43.8826Z" fill="white"/>
<path d="M123.892 75.5844V41.1201H121.288L118.553 43.8826V80.6461H141.181V75.5844H123.892Z" fill="white"/>
<path d="M150.42 43.8743V80.6461H155.755V41.1201H153.135L150.42 43.8743Z" fill="white"/>
<path d="M51.6731 42.2635H63.4454L63.4496 13.3617H75.6263V0.834595H39.4922V13.3617H51.6731V42.2635Z" fill="white"/>
<path d="M75.6394 75.4674C75.6394 80.3164 73.8032 84.4977 70.3247 87.5689C67.0236 90.49 62.4847 92.0674 57.562 92.0674H57.2773C52.4536 92.0089 48.0343 90.3982 44.7952 87.5731C41.3167 84.5102 39.4805 80.3331 39.4805 75.4716V49.5452H51.257V73.6814C51.2509 74.4699 51.4091 75.2508 51.7212 75.9733C52.0333 76.6959 52.4923 77.3439 53.0684 77.8752C54.3005 78.9678 55.8781 79.579 57.5166 79.5986H57.5826C59.2142 79.5751 60.7841 78.9641 62.0102 77.8752C62.5857 77.3437 63.0441 76.6956 63.3555 75.973C63.6669 75.2504 63.8243 74.4696 63.8175 73.6814V49.5452H75.594L75.6394 75.4674Z" fill="white"/>
<path d="M104.556 59.8899C107.201 58.0079 108.542 55.3289 108.542 51.9155C108.542 48.6773 107.395 45.9523 105.241 44.0453C103.087 42.1383 99.9678 41.1243 96.2706 41.1243H83.0664V49.5578L85.3194 51.8362V80.6503H97.9872C105.852 80.6503 110.936 76.1936 110.936 69.2916C110.936 64.9183 108.563 61.4256 104.569 59.8941L104.556 59.8899ZM90.6423 63.0113H97.9748C102.671 63.0113 105.476 65.3231 105.476 69.1914C105.476 73.2058 102.671 75.601 97.9748 75.601H90.6423V63.0113ZM96.4811 58.0038H90.6423V53.7557L88.3894 51.4773V46.1819H96.2582C100.636 46.1819 103.149 48.3726 103.149 52.1951C103.149 55.717 100.529 57.9871 96.4811 57.9871" fill="white"/>
<path d="M31.8754 49.6578L31.8135 49.5577C28.401 44.1329 22.4302 41.1158 14.9987 41.1158H0.886719V80.6419H11.677C17.59 80.6419 22.587 78.7599 26.1191 75.2171C29.6513 71.6742 31.4834 66.7335 31.4834 60.8914C31.527 57.7912 30.9224 54.7168 29.709 51.8695L31.8754 49.6578ZM24.7203 53.86C24.9003 54.269 25.06 54.6868 25.199 55.1119C25.7842 56.9719 26.0712 58.9146 26.049 60.8663C26.049 65.3689 24.7079 69.1079 22.1785 71.6742C19.6491 74.2406 16.0344 75.5676 11.677 75.5676H6.22617V46.1818H14.9987C20.2474 46.1818 24.3283 48.0638 26.8041 51.6066L24.6791 53.7515L24.7203 53.86Z" fill="white"/>
<path d="M123.237 91.7252H121.33V98.1808H120.451V91.7252H118.545V90.9324H123.237V91.7252Z" fill="white"/>
<path d="M124.207 98.1808V90.9282H127.405V91.7294H125.09V94.1122H127.232V94.9175H125.09V97.3837H127.496V98.1808H124.207Z" fill="white"/>
<path d="M130.578 98.3685C128.705 98.3685 128.42 96.6368 128.42 94.5044C128.42 92.372 128.738 90.7488 130.661 90.7488C132.105 90.7488 132.587 91.671 132.629 93.2025H131.696C131.696 92.3345 131.585 91.5792 130.64 91.5792C129.361 91.5792 129.332 92.9437 129.332 94.3625C129.332 96.1986 129.332 97.5214 130.652 97.5214C131.478 97.5214 131.746 96.9539 131.746 95.6269H132.678C132.678 97.3378 132.084 98.3644 130.578 98.3644" fill="white"/>
<path d="M138.301 98.1808H137.418V94.9301H134.785V98.1808H133.906V90.9282H134.785V94.1289H137.418V90.9282H138.301V98.1808Z" fill="white"/>
<path d="M144.334 98.1808H143.43L140.789 92.5557V98.1808H139.939V90.9282H140.996L143.484 96.3989V90.9282H144.334V98.1808Z" fill="white"/>
<path d="M150.09 94.567C150.09 97.0082 149.628 98.3685 147.858 98.3685C146.088 98.3685 145.613 96.9998 145.613 94.5545C145.613 92.1091 146.075 90.7529 147.858 90.7529C149.641 90.7529 150.09 92.1217 150.09 94.567ZM149.178 94.7423C149.178 92.927 149.104 91.6251 147.858 91.6251C146.612 91.6251 146.525 92.9187 146.525 94.3792C146.525 96.1903 146.595 97.4964 147.858 97.4964C149.121 97.4964 149.178 96.2028 149.178 94.7423Z" fill="white"/>
<path d="M154.576 98.1808H151.316V90.9282H152.199V97.3837H154.576V98.1808Z" fill="white"/>
<path d="M159.664 94.567C159.664 97.0082 159.206 98.3685 157.432 98.3685C155.658 98.3685 155.191 96.9998 155.191 94.5545C155.191 92.1091 155.649 90.7529 157.432 90.7529C159.215 90.7529 159.664 92.1217 159.664 94.567ZM158.752 94.7423C158.752 92.927 158.682 91.6251 157.432 91.6251C156.182 91.6251 156.099 92.9187 156.099 94.3792C156.099 96.1903 156.173 97.4964 157.432 97.4964C158.691 97.4964 158.752 96.2028 158.752 94.7423Z" fill="white"/>
<path d="M162.741 94.5252H164.862V98.1807H164.037V97.5715C163.904 97.8252 163.702 98.0351 163.455 98.1764C163.208 98.3177 162.926 98.3843 162.642 98.3685C160.909 98.3685 160.633 96.5115 160.633 94.5127C160.633 92.3887 160.951 90.7571 162.878 90.7571C164.322 90.7571 164.8 91.6793 164.846 93.2149H163.913C163.913 92.3428 163.798 91.5875 162.857 91.5875C161.578 91.5875 161.545 92.9562 161.545 94.375C161.545 96.2069 161.598 97.5297 162.857 97.5297C163.682 97.5297 164.037 96.9622 164.037 95.6352V95.3264H162.741V94.5252Z" fill="white"/>
<path d="M167.269 90.9282H166.398V98.1808H167.269V90.9282Z" fill="white"/>
<path d="M170.76 98.3685C168.886 98.3685 168.602 96.6368 168.602 94.5044C168.602 92.372 168.915 90.7488 170.842 90.7488C172.286 90.7488 172.769 91.671 172.806 93.2025H171.878C171.878 92.3345 171.762 91.5792 170.822 91.5792C169.542 91.5792 169.513 92.9437 169.513 94.3625C169.513 96.1986 169.513 97.5214 170.834 97.5214C171.659 97.5214 171.927 96.9539 171.927 95.6269H172.86C172.86 97.3378 172.266 98.3644 170.76 98.3644" fill="white"/>
<path d="M176.977 96.2236H174.724L174.179 98.1808H173.268L175.388 90.9324H176.329L178.45 98.1808H177.518L176.977 96.2236ZM176.763 95.4141L175.851 92.1091L174.955 95.4141H176.763Z" fill="white"/>
<path d="M182.734 98.1808H179.475V90.9282H180.358V97.3837H182.734V98.1808Z" fill="white"/>
<path d="M122.754 101.653V106.66C122.754 108.112 122.172 109.085 120.666 109.085C119.16 109.085 118.545 108.121 118.545 106.66V101.653H119.416V106.606C119.416 107.62 119.721 108.275 120.707 108.275C121.615 108.275 121.904 107.695 121.904 106.739V101.653H122.754Z" fill="white"/>
<path d="M128.684 108.905H127.784L125.139 103.28V108.905H124.289V101.653H125.345L127.834 107.119V101.653H128.684V108.905Z" fill="white"/>
<path d="M131.242 101.653H130.371V108.905H131.242V101.653Z" fill="white"/>
<path d="M136.693 101.653L134.931 108.905H134.031L132.27 101.653H133.231L134.489 107.599L135.752 101.653H136.693Z" fill="white"/>
<path d="M137.666 108.905V101.653H140.86V102.45H138.545V104.832H140.686V105.642H138.545V108.108H140.955V108.905H137.666Z" fill="white"/>
<path d="M146.339 108.913H145.399L144.161 105.826H143.183V108.913H142.357V101.653H144.107C145.601 101.653 146.17 102.575 146.17 103.643C146.199 104.044 146.101 104.444 145.891 104.784C145.68 105.125 145.367 105.389 144.998 105.538L146.339 108.913ZM145.246 103.672C145.246 103.042 144.998 102.45 144.09 102.45H143.183V105.041H143.963C144.924 105.041 145.242 104.357 145.242 103.672" fill="white"/>
<path d="M149.125 109.089C147.813 109.089 147.107 108.208 147.107 106.531H148.052C148.052 107.733 148.37 108.271 149.158 108.271C149.864 108.271 150.202 107.854 150.202 107.144C150.202 106.31 149.719 106.022 149.014 105.621C148.226 105.175 147.322 104.787 147.322 103.38C147.322 101.974 148.226 101.477 149.199 101.477C150.342 101.477 151.06 102.141 151.06 103.564H150.169C150.169 102.729 149.884 102.279 149.208 102.279C149.068 102.267 148.927 102.287 148.796 102.337C148.665 102.388 148.546 102.467 148.449 102.569C148.352 102.671 148.279 102.794 148.234 102.929C148.19 103.063 148.176 103.206 148.193 103.347C148.193 104.181 148.807 104.499 149.497 104.849C150.322 105.296 151.114 105.721 151.114 107.044C151.114 108.367 150.289 109.085 149.125 109.085" fill="white"/>
<path d="M153.314 101.653H152.443V108.905H153.314V101.653Z" fill="white"/>
<path d="M159.028 102.45H157.125V108.905H156.242V102.45H154.336V101.653H159.028V102.45Z" fill="white"/>
<path d="M162.424 108.905H161.525V106.076L159.668 101.653H160.662L162.016 105.3L163.357 101.653H164.277L162.424 106.076V108.905Z" fill="white"/>
<path d="M172.217 105.158C172.217 107.023 171.746 108.888 169.328 108.888H168.008V101.653H169.382C171.746 101.653 172.208 103.322 172.208 105.175L172.217 105.158ZM171.284 105.225C171.284 103.764 171.123 102.45 169.341 102.45H168.887V108.104H169.32C171.103 108.104 171.284 106.689 171.284 105.225Z" fill="white"/>
<path d="M177.601 101.653V106.66C177.601 108.112 177.02 109.085 175.514 109.085C174.007 109.085 173.393 108.121 173.393 106.66V101.653H174.263V106.606C174.263 107.62 174.573 108.275 175.555 108.275C176.467 108.275 176.751 107.695 176.751 106.739V101.653H177.601Z" fill="white"/>
<path d="M183.011 106.827C183.011 107.862 182.405 108.913 181.022 108.913H179.141V101.653H181.27C182.396 101.653 182.797 102.487 182.797 103.322C182.821 103.664 182.745 104.005 182.576 104.302C182.408 104.6 182.156 104.84 181.852 104.991C182.213 105.119 182.522 105.363 182.732 105.687C182.942 106.011 183.04 106.395 183.011 106.781V106.827ZM180.007 104.657H180.919C181.649 104.657 181.913 104.077 181.913 103.468C181.913 102.959 181.732 102.42 181.088 102.42H180.011L180.007 104.657ZM182.099 106.773C182.099 106.076 181.81 105.433 181.076 105.433H180.007V108.075H181.002C181.827 108.075 182.099 107.424 182.099 106.773" fill="white"/>
<path d="M187.496 108.905H184.24V101.653H185.119V108.108H187.496V108.905Z" fill="white"/>
<path d="M189.595 101.653H188.725V108.905H189.595V101.653Z" fill="white"/>
<path d="M195.678 108.905H194.778L192.133 103.28V108.905H191.283V101.653H192.34L194.828 107.119V101.653H195.678V108.905Z" fill="white"/>
</svg>
